<?xml version="1.0" encoding="utf-8"?>
<!-- Generator: Adobe Illustrator 17.0.0, SVG Export Plug-In . SVG Version: 6.00 Build 0)  -->
<!DOCTYPE svg PUBLIC "-//W3C//DTD SVG 1.1//EN" "http://www.w3.org/Graphics/SVG/1.1/DTD/svg11.dtd">
<svg version="1.1" id="Layer_1" xmlns="http://www.w3.org/2000/svg" xmlns:xlink="http://www.w3.org/1999/xlink" x="0px" y="0px"
	 width="3401.57px" height="1700.79px" viewBox="0 0 3401.57 1700.79" enable-background="new 0 0 3401.57 1700.79"
	 xml:space="preserve">
<g id="Layer_1_2_">
	<g id="Layer_1_1_">
		<path fill="#369845" d="M1607.763,741.727c0,0-32.928,37.232-24.291,71.726c8.636,34.494,65.316,81.033,71.793,93.079
			c6.478,12.045,23.752,24.091,19.972,65.703c0,0,15.114-9.855,21.592-52.562c0,0,9.717-35.589-34.547-74.463
			c-44.263-38.873-43.724-50.373-45.883-52.015C1614.241,791.551,1605.604,768.555,1607.763,741.727z"/>
	</g>
	<g id="Layer_2">
		<path fill="#8AC53F" d="M1708.621,903.245c0,0,44.804-54.205-21.592-110.599c0,0-12.955,17.522-9.717,38.875
			S1704.302,853.422,1708.621,903.245z"/>
	</g>
	<g id="Layer_3">
		<path fill="#8AC53F" d="M1735.157,847.945c0,0,44.804-54.205-21.592-110.599c0,0-12.955,17.522-9.717,38.875
			S1730.838,798.121,1735.157,847.945z"/>
		<path fill="#8AC53F" stroke="#FFFFFF" stroke-miterlimit="10" d="M1890.081,741.727"/>
		<path fill="#8AC53F" stroke="#FFFFFF" stroke-miterlimit="10" d="M1829.083,780.053"/>
	</g>
</g>
</svg>
